REM DIRINDEX 1\2,1\3,1\4,1\5
REM DIRNAME cjc156,folder01,folder02,folder03,folder04
TITLE ""
FILE "CD1Track12.mp3" MP3
  TRACK 01 AUDIO
    TITLE "5:cjc156_1211"
    INDEX 01 00:00:00
  TRACK 02 AUDIO
    TITLE "0:"
    INDEX 01 00:01:44
  TRACK 03 AUDIO
    TITLE "2:cjc156_1212"
    INDEX 01 00:02:45
  TRACK 04 AUDIO
    TITLE "3:cjc156_1213"
    INDEX 01 00:03:66
  TRACK 05 AUDIO
    TITLE "2:cjc156_1214"
    INDEX 01 00:05:16
  TRACK 06 AUDIO
    TITLE "3:cjc156_1215"
    INDEX 01 00:07:17
  TRACK 07 AUDIO
    TITLE "2:cjc156_1216"
    INDEX 01 00:09:24
  TRACK 08 AUDIO
    TITLE "3:cjc156_1217"
    INDEX 01 00:11:13
  TRACK 09 AUDIO
    TITLE "2:cjc156_1218"
    INDEX 01 00:13:14
  TRACK 10 AUDIO
    TITLE "3:cjc156_1219"
    INDEX 01 00:15:07
  TRACK 11 AUDIO
    TITLE "2:cjc156_1220"
    INDEX 01 00:17:10
  TRACK 12 AUDIO
    TITLE "3:cjc156_1221"
    INDEX 01 00:18:46
  TRACK 13 AUDIO
    TITLE "2:cjc156_1222"
    INDEX 01 00:20:20
  TRACK 14 AUDIO
    TITLE "3:cjc156_1223"
    INDEX 01 00:21:41
  TRACK 15 AUDIO
    TITLE "2:cjc156_1224"
    INDEX 01 00:23:03
  TRACK 16 AUDIO
    TITLE "3:cjc156_1225"
    INDEX 01 00:24:53
  TRACK 17 AUDIO
    TITLE "2:cjc156_1226"
    INDEX 01 00:26:40
  TRACK 18 AUDIO
    TITLE "3:cjc156_1227"
    INDEX 01 00:28:49
  TRACK 19 AUDIO
    TITLE "2:cjc156_1228"
    INDEX 01 00:30:69
  TRACK 20 AUDIO
    TITLE "3:cjc156_1229"
    INDEX 01 00:32:56
  TRACK 21 AUDIO
    TITLE "2:cjc156_1230"
    INDEX 01 00:34:55
  TRACK 22 AUDIO
    TITLE "3:cjc156_1231"
    INDEX 01 00:37:08
  TRACK 23 AUDIO
    TITLE "2:cjc156_1232"
    INDEX 01 00:39:51
  TRACK 24 AUDIO
    TITLE "3:cjc156_1233"
    INDEX 01 00:41:16
  TRACK 25 AUDIO
    TITLE "2:cjc156_1234"
    INDEX 01 00:42:74
  TRACK 26 AUDIO
    TITLE "3:cjc156_1235"
    INDEX 01 00:44:22
  TRACK 27 AUDIO
    TITLE "2:cjc156_1236"
    INDEX 01 00:45:55
  TRACK 28 AUDIO
    TITLE "3:cjc156_1237"
    INDEX 01 00:48:20
  TRACK 29 AUDIO
    TITLE "2:cjc156_1238"
    INDEX 01 00:50:70
  TRACK 30 AUDIO
    TITLE "3:cjc156_1239"
    INDEX 01 00:53:08
  TRACK 31 AUDIO
    TITLE "2:cjc156_1240"
    INDEX 01 00:55:28
  TRACK 32 AUDIO
    TITLE "3:cjc156_1241"
    INDEX 01 00:57:46
  TRACK 33 AUDIO
    TITLE "2:cjc156_1242"
    INDEX 01 00:59:73
  TRACK 34 AUDIO
    TITLE "3:cjc156_1243"
    INDEX 01 01:01:03
  TRACK 35 AUDIO
    TITLE "2:cjc156_1244"
    INDEX 01 01:02:16
  TRACK 36 AUDIO
    TITLE "3:cjc156_1245"
    INDEX 01 01:04:35
  TRACK 37 AUDIO
    TITLE "2:cjc156_1246"
    INDEX 01 01:06:55
  TRACK 38 AUDIO
    TITLE "3:cjc156_1247"
    INDEX 01 01:08:42
  TRACK 39 AUDIO
    TITLE "2:cjc156_1248"
    INDEX 01 01:10:24
  TRACK 40 AUDIO
    TITLE "3:cjc156_1249"
    INDEX 01 01:12:19
  TRACK 41 AUDIO
    TITLE "2:cjc156_1250"
    INDEX 01 01:14:25
  TRACK 42 AUDIO
    TITLE "3:cjc156_1251"
    INDEX 01 01:16:42
  TRACK 43 AUDIO
    TITLE "2:cjc156_1252"
    INDEX 01 01:18:70
  TRACK 44 AUDIO
    TITLE "3:cjc156_1253"
    INDEX 01 01:20:51
  TRACK 45 AUDIO
    TITLE "2:cjc156_1254"
    INDEX 01 01:22:46
  TRACK 46 AUDIO
    TITLE "3:cjc156_1255"
    INDEX 01 01:24:24
  TRACK 47 AUDIO
    TITLE "2:cjc156_1256"
    INDEX 01 01:26:11
  TRACK 48 AUDIO
    TITLE "3:cjc156_1257"
    INDEX 01 01:28:51
  TRACK 49 AUDIO
    TITLE "2:cjc156_1258"
    INDEX 01 01:31:26
  TRACK 50 AUDIO
    TITLE "3:cjc156_1259"
    INDEX 01 01:33:15
  TRACK 51 AUDIO
    TITLE "2:cjc156_1260"
    INDEX 01 01:35:16
  TRACK 52 AUDIO
    TITLE "3:cjc156_1261"
    INDEX 01 01:36:47
  TRACK 53 AUDIO
    TITLE "2:cjc156_1262"
    INDEX 01 01:38:12
  TRACK 54 AUDIO
    TITLE "3:cjc156_1263"
    INDEX 01 01:40:29
  TRACK 55 AUDIO
    TITLE "2:cjc156_1264"
    INDEX 01 01:42:47
  TRACK 56 AUDIO
    TITLE "3:cjc156_1265"
    INDEX 01 01:44:09
  TRACK 57 AUDIO
    TITLE "2:cjc156_1266"
    INDEX 01 01:45:53
  TRACK 58 AUDIO
    TITLE "3:cjc156_1267"
    INDEX 01 01:48:36
  TRACK 59 AUDIO
    TITLE "2:cjc156_1268"
    INDEX 01 01:51:25
  TRACK 60 AUDIO
    TITLE "3:cjc156_1269"
    INDEX 01 01:54:09
  TRACK 61 AUDIO
    TITLE "2:cjc156_1270"
    INDEX 01 01:57:08
  TRACK 62 AUDIO
    TITLE "3:cjc156_1271"
    INDEX 01 01:58:44
  TRACK 63 AUDIO
    TITLE "2:cjc156_1272"
    INDEX 01 02:00:18
  TRACK 64 AUDIO
    TITLE "3:cjc156_1273"
    INDEX 01 02:01:48
  TRACK 65 AUDIO
    TITLE "2:cjc156_1274"
    INDEX 01 02:03:12
  TRACK 66 AUDIO
    TITLE "3:cjc156_1275"
    INDEX 01 02:05:44
  TRACK 67 AUDIO
    TITLE "2:cjc156_1276"
    INDEX 01 02:08:11
  TRACK 68 AUDIO
    TITLE "3:cjc156_1277"
    INDEX 01 02:10:59
  TRACK 69 AUDIO
    TITLE "2:cjc156_1278"
    INDEX 01 02:13:38
  TRACK 70 AUDIO
    TITLE "3:cjc156_1279"
    INDEX 01 02:15:45
  TRACK 71 AUDIO
    TITLE "2:cjc156_1280"
    INDEX 01 02:17:61
  TRACK 72 AUDIO
    TITLE "3:cjc156_1281"
    INDEX 01 02:19:29
  TRACK 73 AUDIO
    TITLE "2:cjc156_1282"
    INDEX 01 02:21:06
  TRACK 74 AUDIO
    TITLE "3:cjc156_1283"
    INDEX 01 02:23:21
  TRACK 75 AUDIO
    TITLE "2:cjc156_1284"
    INDEX 01 02:25:47
  TRACK 76 AUDIO
    TITLE "3:cjc156_1285"
    INDEX 01 02:28:06
  TRACK 77 AUDIO
    TITLE "2:cjc156_1286"
    INDEX 01 02:30:56
  TRACK 78 AUDIO
    TITLE "3:cjc156_1287"
    INDEX 01 02:32:37
  TRACK 79 AUDIO
    TITLE "2:cjc156_1288"
    INDEX 01 02:34:30
  TRACK 80 AUDIO
    TITLE "3:cjc156_1289"
    INDEX 01 02:36:47
  TRACK 81 AUDIO
    TITLE "2:cjc156_1290"
    INDEX 01 02:38:73
  TRACK 82 AUDIO
    TITLE "3:cjc156_1291"
    INDEX 01 02:41:21
  TRACK 83 AUDIO
    TITLE "2:cjc156_1292"
    INDEX 01 02:43:49
  TRACK 84 AUDIO
    TITLE "3:cjc156_1293"
    INDEX 01 02:45:73
  TRACK 85 AUDIO
    TITLE "2:cjc156_1294"
    INDEX 01 02:48:34
  TRACK 86 AUDIO
    TITLE "3:cjc156_1295"
    INDEX 01 02:50:18
  TRACK 87 AUDIO
    TITLE "2:cjc156_1296"
    INDEX 01 02:52:11
  TRACK 88 AUDIO
    TITLE "3:cjc156_1297"
    INDEX 01 02:53:33
  TRACK 89 AUDIO
    TITLE "2:cjc156_1298"
    INDEX 01 02:54:68
  TRACK 90 AUDIO
    TITLE "3:cjc156_1299"
    INDEX 01 02:56:51
  TRACK 91 AUDIO
    TITLE "2:cjc156_1300"
    INDEX 01 02:58:42
  TRACK 92 AUDIO
    TITLE "3:cjc156_1301"
    INDEX 01 03:01:62
  TRACK 93 AUDIO
    TITLE "2:cjc156_1302"
    INDEX 01 03:05:15
  TRACK 94 AUDIO
    TITLE "3:cjc156_1303"
    INDEX 01 03:06:17
  TRACK 95 AUDIO
    TITLE "2:cjc156_1304"
    INDEX 01 03:07:28
  TRACK 96 AUDIO
    TITLE "3:cjc156_1305"
    INDEX 01 03:09:05
  TRACK 97 AUDIO
    TITLE "2:cjc156_1306"
    INDEX 01 03:10:67
  TRACK 98 AUDIO
    TITLE "3:cjc156_1307"
    INDEX 01 03:12:29
  TRACK 99 AUDIO
    TITLE "2:cjc156_1308"
    INDEX 01 03:13:71
  TRACK 100 AUDIO
    TITLE "3:cjc156_1309"
    INDEX 01 03:15:00
  TRACK 101 AUDIO
    TITLE "2:cjc156_1310"
    INDEX 01 03:16:13
  TRACK 102 AUDIO
    TITLE "3:cjc156_1311"
    INDEX 01 03:18:35
  TRACK 103 AUDIO
    TITLE "2:cjc156_1312"
    INDEX 01 03:20:70
  TRACK 104 AUDIO
    TITLE "3:cjc156_1313"
    INDEX 01 03:22:23
  TRACK 105 AUDIO
    TITLE "2:cjc156_1314"
    INDEX 01 03:23:66
  TRACK 106 AUDIO
    TITLE "3:cjc156_1315"
    INDEX 01 03:25:49
  TRACK 107 AUDIO
    TITLE "2:cjc156_1316"
    INDEX 01 03:27:44
  TRACK 108 AUDIO
    TITLE "3:cjc156_1317"
    INDEX 01 03:29:00
  TRACK 109 AUDIO
    TITLE "2:cjc156_1318"
    INDEX 01 03:30:41
  TRACK 110 AUDIO
    TITLE "3:cjc156_1319"
    INDEX 01 03:31:50
  TRACK 111 AUDIO
    TITLE "2:cjc156_1320"
    INDEX 01 03:32:73
  TRACK 112 AUDIO
    TITLE "3:cjc156_1321"
    INDEX 01 03:34:50
  TRACK 113 AUDIO
    TITLE "2:cjc156_1322"
    INDEX 01 03:36:35
  TRACK 114 AUDIO
    TITLE "3:cjc156_1323"
    INDEX 01 03:38:36
  TRACK 115 AUDIO
    TITLE "2:cjc156_1324"
    INDEX 01 03:40:41
  TRACK 116 AUDIO
    TITLE "3:cjc156_1325"
    INDEX 01 03:42:22
  TRACK 117 AUDIO
    TITLE "2:cjc156_1326"
    INDEX 01 03:44:05
  TRACK 118 AUDIO
    TITLE "3:cjc156_1327"
    INDEX 01 03:45:66
  TRACK 119 AUDIO
    TITLE "2:cjc156_1328"
    INDEX 01 03:47:63
  TRACK 120 AUDIO
    TITLE "3:cjc156_1329"
    INDEX 01 03:49:56
  TRACK 121 AUDIO
    TITLE "2:cjc156_1330"
    INDEX 01 03:51:56
  TRACK 122 AUDIO
    TITLE "3:cjc156_1331"
    INDEX 01 03:54:02
  TRACK 123 AUDIO
    TITLE "2:cjc156_1332"
    INDEX 01 03:56:34
  TRACK 124 AUDIO
    TITLE "3:cjc156_1333"
    INDEX 01 03:57:61
  TRACK 125 AUDIO
    TITLE "2:cjc156_1334"
    INDEX 01 03:59:23
  TRACK 126 AUDIO
    TITLE "3:cjc156_1335"
    INDEX 01 04:01:06
  TRACK 127 AUDIO
    TITLE "2:cjc156_1336"
    INDEX 01 04:02:74
  TRACK 128 AUDIO
    TITLE "3:cjc156_1337"
    INDEX 01 04:04:55
  TRACK 129 AUDIO
    TITLE "2:cjc156_1338"
    INDEX 01 04:06:46
  TRACK 130 AUDIO
    TITLE "3:cjc156_1339"
    INDEX 01 04:08:43
  TRACK 131 AUDIO
    TITLE "2:cjc156_1340"
    INDEX 01 04:10:50
  TRACK 132 AUDIO
    TITLE "3:cjc156_1341"
    INDEX 01 04:11:69
  TRACK 133 AUDIO
    TITLE "2:cjc156_1342"
    INDEX 01 04:13:27
  TRACK 134 AUDIO
    TITLE "3:cjc156_1343"
    INDEX 01 04:14:73
  TRACK 135 AUDIO
    TITLE "2:cjc156_1344"
    INDEX 01 04:16:50
  TRACK 136 AUDIO
    TITLE "3:cjc156_1345"
    INDEX 01 04:19:14
  TRACK 137 AUDIO
    TITLE "2:cjc156_1346"
    INDEX 01 04:21:57
  TRACK 138 AUDIO
    TITLE "3:cjc156_1347"
    INDEX 01 04:23:37
  TRACK 139 AUDIO
    TITLE "2:cjc156_1348"
    INDEX 01 04:25:28
  TRACK 140 AUDIO
    TITLE "3:cjc156_1349"
    INDEX 01 04:27:01
  TRACK 141 AUDIO
    TITLE "2:cjc156_1350"
    INDEX 01 04:28:63
  TRACK 142 AUDIO
    TITLE "3:cjc156_1351"
    INDEX 01 04:30:70
  TRACK 143 AUDIO
    TITLE "2:cjc156_1352"
    INDEX 01 04:33:10
  TRACK 144 AUDIO
    TITLE "3:cjc156_1353"
    INDEX 01 04:34:60
  TRACK 145 AUDIO
    TITLE "2:cjc156_1354"
    INDEX 01 04:36:43
  TRACK 146 AUDIO
    TITLE "3:cjc156_1355"
    INDEX 01 04:38:11
  TRACK 147 AUDIO
    TITLE "2:cjc156_1356"
    INDEX 01 04:39:63
  TRACK 148 AUDIO
    TITLE "3:cjc156_1357"
    INDEX 01 04:41:43
  TRACK 149 AUDIO
    TITLE "2:cjc156_1358"
    INDEX 01 04:43:32
  TRACK 150 AUDIO
    TITLE "3:cjc156_1359"
    INDEX 01 04:46:16
  TRACK 151 AUDIO
    TITLE "2:cjc156_1360"
    INDEX 01 04:49:11
  TRACK 152 AUDIO
    TITLE "3:cjc156_1361"
    INDEX 01 04:50:08
  TRACK 153 AUDIO
    TITLE "2:cjc156_1362"
    INDEX 01 04:51:17
  TRACK 154 AUDIO
    TITLE "3:cjc156_1363"
    INDEX 01 04:52:56
  TRACK 155 AUDIO
    TITLE "2:cjc156_1364"
    INDEX 01 04:54:33
  TRACK 156 AUDIO
    TITLE "3:cjc156_1365"
    INDEX 01 04:56:26
  TRACK 157 AUDIO
    TITLE "2:cjc156_1366"
    INDEX 01 04:58:31
  TRACK 158 AUDIO
    TITLE "3:cjc156_1367"
    INDEX 01 04:59:62
  TRACK 159 AUDIO
    TITLE "2:cjc156_1368"
    INDEX 01 05:01:32
  TRACK 160 AUDIO
    TITLE "3:cjc156_1369"
    INDEX 01 05:02:66
  TRACK 161 AUDIO
    TITLE "2:cjc156_1370"
    INDEX 01 05:04:44
  TRACK 162 AUDIO
    TITLE "3:cjc156_1371"
    INDEX 01 05:06:27
  TRACK 163 AUDIO
    TITLE "2:cjc156_1372"
    INDEX 01 05:08:20
  TRACK 164 AUDIO
    TITLE "3:cjc156_1373"
    INDEX 01 05:10:74
  TRACK 165 AUDIO
    TITLE "2:cjc156_1374"
    INDEX 01 05:13:58
  TRACK 166 AUDIO
    TITLE "3:cjc156_1375"
    INDEX 01 05:15:71
  TRACK 167 AUDIO
    TITLE "2:cjc156_1376"
    INDEX 01 05:18:18
  TRACK 168 AUDIO
    TITLE "3:cjc156_1377"
    INDEX 01 05:19:57
  TRACK 169 AUDIO
    TITLE "2:cjc156_1378"
    INDEX 01 05:21:28
  TRACK 170 AUDIO
    TITLE "3:cjc156_1379"
    INDEX 01 05:23:41
  TRACK 171 AUDIO
    TITLE "2:cjc156_1380"
    INDEX 01 05:25:63
  TRACK 172 AUDIO
    TITLE "3:cjc156_1381"
    INDEX 01 05:27:58
  TRACK 173 AUDIO
    TITLE "2:cjc156_1382"
    INDEX 01 05:29:65
  TRACK 174 AUDIO
    TITLE "3:cjc156_1383"
    INDEX 01 05:32:32
  TRACK 175 AUDIO
    TITLE "2:cjc156_1384"
    INDEX 01 05:35:11
  TRACK 176 AUDIO
    TITLE "3:cjc156_1385"
    INDEX 01 05:37:08
  TRACK 177 AUDIO
    TITLE "2:cjc156_1386"
    INDEX 01 05:39:11
  TRACK 178 AUDIO
    TITLE "3:cjc156_1387"
    INDEX 01 05:40:37
  TRACK 179 AUDIO
    TITLE "2:cjc156_1388"
    INDEX 01 05:42:05
  TRACK 180 AUDIO
    TITLE "3:cjc156_1389"
    INDEX 01 05:43:67
  TRACK 181 AUDIO
    TITLE "2:cjc156_1390"
    INDEX 01 05:45:60
  TRACK 182 AUDIO
    TITLE "3:cjc156_1391"
    INDEX 01 05:47:12
  TRACK 183 AUDIO
    TITLE "0:"
    INDEX 01 05:48:51
